<?xml version="1.0" encoding="utf-8"?>
<!-- Generator: Adobe Illustrator 23.0.3, SVG Export Plug-In . SVG Version: 6.00 Build 0)  -->
<svg version="1.1" id="Layer_1" xmlns="http://www.w3.org/2000/svg" xmlns:xlink="http://www.w3.org/1999/xlink" x="0px" y="0px"
	 viewBox="0 0 276.2 175.3" style="enable-background:new 0 0 276.2 175.3;" xml:space="preserve">
<style type="text/css">
	.st0{fill:red;}
</style>
<title>Asset 1</title>
<g>
	<g>
		<path class="st0" d="M118.8,131.7c-3.3,0-5.8,2.5-5.9,6c0,2.8,1.7,4.4,4.6,4.4c3.3,0,5.8-2.5,5.9-6
			C123.4,133.4,121.7,131.7,118.8,131.7z"/>
		<path class="st0" d="M108.5,133.1c-0.1-0.1-0.3-0.2-0.5-0.2h-7.3c-0.3,0-0.6,0.2-0.6,0.5c0,0-2.8,14-3,15
			c-1.8-3.2-5.4-5.2-9.9-5.2c-8.9,0-15.4,7.2-15.4,17c0,8.1,4.9,13.6,12.1,13.6c3.5,0,6.5-1.4,8.8-3.9c-0.2,0.7-0.3,1.4-0.5,2.3
			c0,0.2,0,0.4,0.1,0.5s0.3,0.2,0.5,0.2h7.3c0.3,0,0.6-0.2,0.6-0.5l7.8-38.7C108.6,133.5,108.6,133.3,108.5,133.1z M94.4,158.4
			c-0.2,1-0.5,2-1,2.9s-1.1,1.6-1.7,2.3c-0.7,0.6-1.5,1.1-2.3,1.5c-1.6,0.7-3.6,0.7-5.1,0.1c-0.7-0.3-1.3-0.7-1.8-1.2
			s-0.9-1.2-1.1-1.9c-0.2-0.8-0.3-1.6-0.3-2.6c0.1-1.1,0.3-2.2,0.7-3.2c0.4-1,1-1.9,1.7-2.7c0.7-0.7,1.5-1.3,2.5-1.8
			c0.9-0.4,1.9-0.7,3-0.7c0.9,0,1.8,0.2,2.5,0.5s1.3,0.8,1.8,1.4c0.5,0.6,0.8,1.4,1,2.3C94.6,156.3,94.6,157.3,94.4,158.4z"/>
		<path class="st0" d="M119.9,146.3h-7.6c-0.3,0-0.6,0.2-0.7,0.5l-5.1,25.4c0,0.2,0,0.4,0.1,0.5s0.3,0.2,0.5,0.2h7.6
			c0.3,0,0.6-0.2,0.7-0.5l5.1-25.4c0-0.2,0-0.4-0.1-0.5S120.1,146.3,119.9,146.3z"/>
		<path class="st0" d="M10,170.5c0.8-3.4,2.2-11,2.2-11.2c0.3,0,8.9,0.1,8.9,0.1c10.2,0,16.5-5.5,16.5-14.2
			c0-7.7-5.3-12.3-14.1-12.3H8.4c-0.3,0-0.6,0.2-0.7,0.5L0,171.8c0,0.2,0,0.4,0.2,0.5c0.1,0.2,0.3,0.2,0.5,0.2h3h3.8
			C7.5,172.6,9.5,172.6,10,170.5z M21.4,151.1c0,0-7.3,0-7.5,0c0-0.2,1.9-9.6,2-10c0.4,0,7,0.1,7,0.1c3.3,0,5.2,1.6,5.2,4.4
			C28,149,25.6,151.1,21.4,151.1z"/>
		<path class="st0" d="M175.9,143.1c-9.9,0-17.1,7.1-17.1,16.8c0,8.4,5.7,13.7,14.6,13.7c9.9,0,17.1-7.1,17.1-16.8
			C190.5,148.5,184.8,143.1,175.9,143.1z M173.9,165.1c-3.8,0-6-2.1-6-5.7c0-4.4,3.1-7.7,7.4-7.7c3.8,0,6,2.1,6,5.7
			C181.3,161.9,178.2,165.1,173.9,165.1z"/>
		<path class="st0" d="M159.9,133.1c-0.1-0.1-0.3-0.2-0.5-0.2H152c-0.3,0-0.6,0.2-0.6,0.5c0,0-2.8,14-3,15c-1.8-3.2-5.4-5.2-9.9-5.2
			c-8.9,0-15.4,7.2-15.4,17c0,8.1,4.9,13.6,12.1,13.6c3.5,0,6.5-1.4,8.8-3.9c-0.2,0.7-0.3,1.4-0.5,2.3c0,0.2,0,0.4,0.1,0.5
			s0.3,0.2,0.5,0.2h7.3c0.3,0,0.6-0.2,0.6-0.5l7.8-38.7C160,133.5,160,133.3,159.9,133.1z M145.9,158.4c-0.2,1-0.5,2-1,2.9
			s-1.1,1.6-1.7,2.3c-0.7,0.6-1.5,1.1-2.3,1.5c-1.6,0.7-3.6,0.7-5.1,0.1c-0.7-0.3-1.3-0.7-1.8-1.2s-0.9-1.2-1.1-1.9
			c-0.2-0.8-0.3-1.6-0.3-2.6c0.1-1.1,0.3-2.2,0.7-3.2s1-1.9,1.7-2.7c0.7-0.7,1.5-1.3,2.5-1.8c0.9-0.4,1.9-0.7,3-0.7
			c0.9,0,1.8,0.2,2.5,0.5s1.3,0.8,1.8,1.4c0.5,0.6,0.8,1.4,1,2.3C146.1,156.3,146.1,157.3,145.9,158.4z"/>
		<path class="st0" d="M214.6,145.4c-3.8-1.7-7.7-2.5-11.3-2.2c-6.3,0.6-9.9,4.3-9.4,9.8c0.3,3.3,2.2,5.8,5.8,7.8l4,2.1
			c1.6,0.9,1.8,1.3,1.8,1.8c0.1,1.2-1.2,1.5-2.1,1.6c-2.5,0.2-5.5-0.7-8.8-2.7c-0.1-0.1-0.3-0.1-0.5-0.1s-0.3,0.2-0.4,0.3l-3.2,5.6
			c-0.2,0.3-0.1,0.7,0.2,0.9c4,2.7,8.5,3.9,13.2,3.5c7-0.6,10.7-4.3,10.2-10.1c-0.3-3.5-2-5.8-5.8-7.7l-3.6-1.8
			c-2.1-1.2-2.2-1.4-2.3-2c0-0.3-0.1-1.2,1.9-1.4s4.6,0.4,7.2,1.7c0.2,0.1,0.3,0.1,0.5,0s0.3-0.2,0.4-0.3l2.5-5.7
			C215.1,145.9,214.9,145.5,214.6,145.4z"/>
		<path class="st0" d="M254.1,133c-0.1-0.2-0.4-0.4-0.6-0.4h-10.3c-0.2,0-0.5,0.1-0.6,0.3c0,0-10.3,14.6-11,15.9
			c-0.2-1.3-5.2-15.7-5.2-15.7c-0.1-0.3-0.4-0.5-0.7-0.5h-9c-0.2,0-0.4,0.1-0.6,0.3c-0.1,0.2-0.2,0.4-0.1,0.6l9.6,24.3l-2.9,14.1
			c0,0.2,0,0.4,0.1,0.6c0.1,0.2,0.3,0.3,0.5,0.3h7.3c1,0,1.8-0.7,2-1.6l2.6-13.1l18.8-24.4C254.2,133.6,254.3,133.3,254.1,133z"/>
		<path class="st0" d="M276.1,144c-0.1-0.1-0.3-0.2-0.5-0.2h-7.1c-0.3,0-0.6,0.2-0.6,0.5c0,0-0.3,1.4-0.4,2.3l0,0
			c-1.6-2-4.1-3.2-6.6-3.3c-2.3-0.1-4.5,0.2-6.6,1c-7,2.7-11.7,9.6-11.6,17.1c0.1,6.6,4.4,11,10.9,11.3c3.5,0.2,6.6-0.9,9.4-3.3
			c-0.1,0.7-0.3,1.6-0.4,2.3c0,0.2,0,0.4,0.1,0.5s0.3,0.2,0.5,0.2h7.1c0.3,0,0.6-0.2,0.6-0.5l5.5-27.5
			C276.3,144.4,276.2,144.2,276.1,144z M265.1,158.2c-0.2,1-0.5,1.9-0.9,2.8c-0.5,0.8-1,1.6-1.7,2.2c-0.6,0.6-1.4,1.1-2.2,1.4
			c-1.5,0.6-3.4,0.7-4.8,0.1c-0.7-0.3-1.2-0.7-1.7-1.2s-0.8-1.1-1-1.8s-0.3-1.5-0.3-2.4c0.1-1.1,0.3-2.1,0.7-3.1s1-1.8,1.6-2.5
			c0.7-0.7,1.5-1.3,2.4-1.7s1.8-0.6,2.9-0.6c0.9,0,1.7,0.2,2.4,0.5c0.7,0.3,1.3,0.8,1.7,1.4c0.5,0.6,0.8,1.3,1,2.2
			C265.2,156.2,265.2,157.1,265.1,158.2z"/>
		<path class="st0" d="M55.1,143.1c-9.8,0-16.8,7.1-16.8,16.9c0,8.4,5.7,13.7,14.8,13.7c4.1,0,7.6-1.1,11.2-3.5
			c0.3-0.2,0.4-0.7,0.1-1l-4.5-4.6c-0.2-0.2-0.5-0.2-0.7-0.1c-2,1-3.8,1.5-5.9,1.5c-4.2,0-6.6-1.9-6.7-5.2l20.5-0.1
			c0.3,0,0.6-0.2,0.6-0.5c0.5-2.1,0.7-3.6,0.7-5.2C68.4,147.7,63.3,143.1,55.1,143.1z M47.5,154.4c1.4-3.2,3.8-4.9,7.4-4.9
			c3.7,0,5.6,1.7,5.7,4.9C60,154.5,48.1,154.4,47.5,154.4z"/>
	</g>
	<path class="st0" d="M160.6,1.6h-1.2l-5.3-0.1H93.3c-1,0-1.7,0.8-1.7,1.7v9.6c0,10.6,7.5,16.4,21,16.4l48,0.1
		c5.1,0,9.2,4.1,9.2,9.2s-4.1,9.2-9.2,9.2l0,0h-53.8c-0.8,0-1.5,0.5-1.7,1.3L92.4,99.4c-0.1,0.5,0,1.1,0.3,1.5s0.8,0.7,1.4,0.7h17.1
		c6.4,0,9.5-5.3,10.2-8.1l5-18.3h34.3c20.3,0,36.8-16.5,36.8-36.8C197.4,18.1,180.9,1.6,160.6,1.6z"/>
</g>
</svg>
