<?xml version="1.0" encoding="UTF-8" standalone="no"?>
<svg
   xmlns:dc="http://purl.org/dc/elements/1.1/"
   xmlns:cc="http://creativecommons.org/ns#"
   xmlns:rdf="http://www.w3.org/1999/02/22-rdf-syntax-ns#"
   xmlns:svg="http://www.w3.org/2000/svg"
   xmlns="http://www.w3.org/2000/svg"
   viewBox="0 0 1200 1200"
   height="1200"
   width="1200"
   xml:space="preserve"
   id="svg2"
   version="1.1"><metadata
     id="metadata8"><rdf:RDF><cc:Work
         rdf:about=""><dc:format>image/svg+xml</dc:format><dc:type
           rdf:resource="http://purl.org/dc/dcmitype/StillImage" /></cc:Work></rdf:RDF></metadata><defs
     id="defs6"><clipPath
       id="clipPath18"
       clipPathUnits="userSpaceOnUse"><path
         id="path16"
         d="M 0,900 H 900 V 0 H 0 Z" /></clipPath></defs><g
     transform="matrix(1.3333333,0,0,-1.3333333,0,1200)"
     id="g10"><g
       id="g12"><g
         clip-path="url(#clipPath18)"
         id="g14"><g
           transform="translate(121.4175,573.8799)"
           id="g20"><path
             id="path22"
             style="fill:red;fill-opacity:1;fill-rule:nonzero;stroke:none"
             d="m 0,0 c -1.791,-6.252 -3.413,-12.326 -4.839,-18.116 -1.795,-7.293 -3.448,-13.917 -4.941,-19.86 -1.472,-5.824 -2.509,-10.509 -3.09,-13.93 -1.187,-6.072 -5.159,-9.901 -11.502,-11.149 -5.462,-1.078 -11.33,-0.631 -17.38,1.336 -5.958,1.945 -11.384,5.322 -16.126,10.041 -4.974,4.952 -7.499,11.183 -7.499,18.516 0,5.97 1.495,15.405 4.57,28.844 2.991,13.105 7.316,28.653 12.858,46.21 5.498,17.427 12.163,36.621 19.808,57.052 6.576,17.558 13.939,35.228 21.937,52.651 2.619,5.708 8.029,9.636 14.269,10.361 14.125,1.641 26.379,1.238 36.758,-1.213 6.251,-1.474 9.614,-8.276 6.992,-14.14 C 45.12,131.641 38.943,116.717 33.429,102.188 28.966,90.422 24.681,78.781 20.647,67.457 c -0.397,-1.113 0.741,-2.155 1.816,-1.661 5.383,2.48 10.703,5.402 15.898,8.738 8.518,5.472 16.275,12.008 23.06,19.427 6.762,7.4 12.306,15.757 16.475,24.84 4.124,8.983 6.216,18.757 6.216,29.051 0,13.237 -3.665,23.01 -10.89,29.047 -7.313,6.108 -17.617,9.203 -30.623,9.203 -13.853,0 -26.518,-3.287 -37.649,-9.771 -11.408,-6.64 -21.279,-14.817 -29.342,-24.307 -8.112,-9.537 -14.503,-19.735 -18.992,-30.31 -4.447,-10.485 -6.705,-19.675 -6.705,-27.317 0,-5.481 -2.892,-9.439 -8.143,-11.143 -4.604,-1.498 -9.674,-1.282 -14.883,0.665 -5.012,1.869 -9.653,5.549 -13.801,10.938 -4.176,5.419 -6.292,12.758 -6.292,21.81 0,7.9 2.993,17.21 9.147,28.46 6.003,10.962 14.868,21.634 26.351,31.718 11.467,10.071 25.945,18.809 43.034,25.967 17.197,7.201 37.074,10.851 59.072,10.851 12.53,0 25.092,-1.468 37.335,-4.364 12.345,-2.926 23.532,-7.375 33.25,-13.223 9.837,-5.918 17.915,-13.35 24.008,-22.091 6.204,-8.894 9.347,-19.323 9.347,-30.998 0,-12.579 -2.76,-24.372 -8.205,-35.049 C 134.729,97.357 127.302,87.696 118.054,79.22 108.894,70.814 98.036,63.394 85.78,57.171 75.672,52.045 64.922,47.675 53.767,44.153 c -0.709,-0.223 -0.965,-0.59 -0.933,-1.331 0.242,-5.565 0.64,-11.049 1.19,-16.347 0.631,-6.075 1.469,-12.003 2.49,-17.62 1.003,-5.521 2.209,-10.901 3.582,-15.992 1.066,-3.938 2.252,-7.777 3.529,-11.409 0.813,-2.322 1.668,-4.586 2.541,-6.726 1.743,-4.296 3.667,-8.404 5.716,-12.217 2.006,-3.738 4.183,-7.289 6.471,-10.554 2.223,-3.178 4.613,-6.171 7.106,-8.899 2.424,-2.65 4.988,-5.096 7.628,-7.27 2.573,-2.12 5.283,-4.034 8.057,-5.694 2.699,-1.611 5.531,-3.014 8.414,-4.171 2.844,-1.137 5.79,-2.051 8.752,-2.716 2.959,-0.665 6.025,-1.102 9.111,-1.3 3.087,-0.194 6.296,-0.15 9.5,0.136 3.255,0.286 6.582,0.827 9.899,1.605 3.383,0.795 6.839,1.855 10.273,3.154 3.517,1.329 7.076,2.934 10.584,4.769 1.343,0.7 2.696,1.442 4.045,2.222 4.38,2.528 9.963,1.323 12.907,-2.788 2.945,-4.112 2.288,-9.787 -1.517,-13.117 -1.866,-1.635 -3.739,-3.226 -5.602,-4.759 -4.5,-3.694 -9.02,-7.119 -13.429,-10.18 -4.2,-2.915 -8.459,-5.612 -12.661,-8.013 -2.11,-1.208 -4.322,-2.4 -6.563,-3.54 -4.321,-2.191 -8.697,-4.124 -13.002,-5.747 -4.299,-1.614 -8.612,-2.947 -12.819,-3.964 -4.204,-1.018 -8.433,-1.752 -12.572,-2.179 -2.944,-0.3 -5.896,-0.453 -8.775,-0.453 -1.165,0 -2.327,0.024 -3.492,0.074 -3.995,0.172 -7.975,0.646 -11.826,1.407 -1.913,0.375 -3.831,0.832 -5.71,1.361 -1.816,0.501 -3.682,1.101 -5.546,1.781 -3.59,1.309 -7.141,2.92 -10.541,4.787 -3.342,1.833 -6.619,3.954 -9.735,6.303 -2.515,1.898 -4.984,3.982 -7.333,6.199 -2.827,2.665 -5.574,5.613 -8.177,8.763 -2.564,3.103 -5.025,6.46 -7.315,9.979 -2.289,3.515 -4.458,7.257 -6.451,11.126 -1.998,3.864 -3.879,7.972 -5.596,12.21 -1.696,4.186 -3.288,8.642 -4.724,13.242 -1.409,4.519 -2.706,9.307 -3.848,14.233 C 6.258,-24.563 5.27,-19.458 4.45,-14.306 3.721,-9.755 3.103,-5.029 2.612,-0.231 2.463,1.231 0.405,1.413 0,0" /></g><g
           transform="translate(872.6494,757.8682)"
           id="g24"><path
             id="path26"
             style="fill:red;fill-opacity:1;fill-rule:nonzero;stroke:none"
             d="m 0,0 c 0,-20.654 -16.747,-37.396 -37.396,-37.396 -20.653,0 -37.399,16.742 -37.399,37.396 0,20.653 16.746,37.396 37.399,37.396 C -16.747,37.396 0,20.653 0,0" /></g><g
           transform="translate(695.4375,655.3232)"
           id="g28"><path
             id="path30"
             style="fill:red;fill-opacity:1;fill-rule:nonzero;stroke:none"
             d="m 0,0 c -1.17,-6.573 -3.03,-14.153 -5.525,-22.525 -2.506,-8.355 -5.712,-17.168 -9.498,-26.109 -4.122,-9.021 -8.384,-17.451 -12.667,-25.055 -4.239,-7.52 -8.455,-13.99 -12.518,-19.229 -3.964,-5.105 -7.632,-8.879 -10.913,-11.222 -2.472,-1.768 -3.84,-1.958 -4.315,-1.958 -0.217,0 -0.395,0.035 -0.585,0.121 -0.409,0.183 -1.792,1.133 -2.39,5.625 -0.56,4.112 -0.262,9.512 0.884,16.058 1.168,6.748 3.025,14.389 5.524,22.716 2.479,8.312 5.683,17.122 9.527,26.187 3.809,8.988 7.974,17.376 12.385,24.935 4.402,7.551 8.688,13.952 12.741,19.031 3.937,4.958 7.617,8.675 10.935,11.049 2.481,1.77 3.846,1.961 4.318,1.961 0.22,0 0.404,-0.037 0.571,-0.114 0.408,-0.183 1.789,-1.136 2.401,-5.63 C 1.429,11.725 1.135,6.396 0,0 m -167.443,-0.001 c -1.17,-6.576 -3.029,-14.155 -5.524,-22.524 -2.517,-8.397 -5.727,-17.209 -9.498,-26.109 -4.127,-9.036 -8.389,-17.467 -12.662,-25.055 -4.247,-7.525 -8.461,-13.995 -12.527,-19.229 -3.954,-5.102 -7.624,-8.875 -10.914,-11.223 -2.469,-1.767 -3.833,-1.957 -4.305,-1.957 -0.222,0 -0.401,0.035 -0.59,0.121 -0.408,0.183 -1.787,1.129 -2.392,5.626 -0.556,4.093 -0.259,9.496 0.883,16.057 1.166,6.724 3.027,14.365 5.527,22.716 2.48,8.316 5.686,17.127 9.532,26.188 3.817,9.009 7.978,17.398 12.375,24.933 4.418,7.56 8.703,13.964 12.741,19.03 3.956,4.97 7.637,8.69 10.94,11.052 2.478,1.769 3.846,1.96 4.318,1.96 0.222,0 0.405,-0.037 0.571,-0.114 0.411,-0.183 1.795,-1.136 2.403,-5.63 0.551,-4.105 0.256,-9.436 -0.878,-15.842 m -181.166,0.399 c -0.724,-6.667 -2.135,-14.295 -4.191,-22.668 -2.059,-8.342 -4.886,-17.131 -8.399,-26.126 -3.503,-8.951 -7.235,-17.37 -11.095,-25.024 -3.785,-7.475 -7.612,-13.852 -11.377,-18.955 -3.671,-4.964 -7.119,-8.662 -10.254,-10.996 -2.321,-1.732 -3.603,-1.919 -4.046,-1.919 -0.203,0 -0.375,0.036 -0.563,0.123 -0.426,0.189 -1.874,1.165 -2.629,5.727 -0.708,4.173 -0.773,9.56 -0.2,16.012 0.582,6.563 1.916,14.1 3.962,22.403 2.045,8.311 4.872,17.1 8.402,26.124 3.551,9.067 7.285,17.487 11.103,25.031 3.767,7.469 7.598,13.924 11.394,19.184 3.651,5.073 7.094,8.83 10.225,11.166 2.322,1.727 3.607,1.915 4.053,1.915 0.209,0 0.381,-0.036 0.545,-0.109 0.442,-0.201 1.961,-1.216 2.889,-5.838 0.83,-4.105 0.89,-9.506 0.181,-16.05 m 517.471,-48.693 c -1.82,2.827 -5.33,4.655 -8.942,4.655 -3.428,0 -6.505,-1.606 -8.44,-4.409 -2.217,-3.209 -4.952,-7.019 -8.132,-11.325 -3.49,-4.722 -7.255,-9.251 -11.192,-13.457 -3.912,-4.186 -7.724,-7.826 -11.335,-10.818 -3.731,-3.097 -6.146,-3.746 -7.512,-3.746 -0.957,0 -2.736,0 -3.14,4.707 -0.419,4.929 0.311,11.338 2.172,19.051 1.901,7.925 4.655,16.722 8.188,26.146 3.597,9.592 7.212,18.754 10.733,27.229 3.661,8.809 6.807,16.133 9.612,22.391 2.797,6.228 4.549,10.281 5.217,12.053 2.237,5.131 1.42,10.189 -2.364,14.632 -3.475,4.072 -8.125,6.926 -13.814,8.484 -5.558,1.523 -11.616,1.611 -17.933,0.263 C 105.218,46.114 99.857,42.203 96.047,35.944 92.688,30.448 88.32,21.814 83.061,10.283 77.784,-1.275 72.686,-14.109 67.907,-27.86 65.008,-36.2 62.332,-44.679 59.912,-53.214 55.883,-67.41 47.596,-80.028 36.171,-89.365 c -4.091,-3.343 -8.396,-6.493 -12.872,-9.421 -1.98,-1.297 -3.973,-2.498 -5.971,-3.598 -0.633,-0.348 -1.292,0.416 -0.855,0.988 3.452,4.547 6.848,9.46 10.16,14.71 6.828,10.81 13.047,23.756 18.489,38.477 5.753,15.587 9.363,29.804 10.729,42.261 1.375,12.609 0.898,23.612 -1.429,32.703 -2.405,9.387 -6.611,16.77 -12.51,21.948 -6.103,5.35 -13.651,8.063 -22.422,8.063 -10.344,0 -19.85,-2.737 -28.255,-8.135 -5.741,-3.688 -11.061,-7.807 -15.881,-12.299 -0.401,-0.373 -0.732,-0.329 -1.023,0.132 -1.071,1.706 -2.513,3.312 -4.325,4.816 -4.079,3.369 -8.985,5.625 -14.592,6.705 -5.626,1.067 -11.342,0.681 -16.915,-1.149 C -67.463,44.878 -71.91,40.831 -74.72,34.802 -80.111,23.188 -85.804,9.633 -91.643,-5.486 c -5.824,-15.097 -11.502,-30.878 -16.885,-46.907 -0.595,-1.778 -1.189,-3.556 -1.78,-5.334 -4.544,-13.67 -13.079,-25.665 -24.505,-34.439 -3.011,-2.314 -6.128,-4.525 -9.33,-6.62 -1.979,-1.297 -3.974,-2.498 -5.975,-3.599 -0.632,-0.348 -1.291,0.415 -0.854,0.989 3.452,4.544 6.846,9.455 10.158,14.708 6.826,10.803 13.047,23.747 18.496,38.479 5.751,15.589 9.36,29.806 10.726,42.261 1.377,12.614 0.899,23.618 -1.428,32.703 -2.401,9.383 -6.607,16.767 -12.508,21.948 -6.107,5.351 -13.653,8.063 -22.418,8.063 -10.352,0 -19.858,-2.737 -28.26,-8.133 -5.745,-3.69 -11.065,-7.809 -15.882,-12.298 -0.399,-0.373 -0.729,-0.33 -1.018,0.133 -1.073,1.703 -2.518,3.309 -4.333,4.81 -4.074,3.37 -8.981,5.625 -14.594,6.707 -5.626,1.069 -11.346,0.68 -16.908,-1.149 -5.955,-1.954 -10.405,-6.001 -13.226,-12.036 -5.393,-11.632 -11.086,-25.186 -16.916,-40.287 -5.471,-14.187 -10.792,-28.912 -15.84,-43.815 -3.809,-11.248 -9.511,-20.284 -18.022,-28.562 -2.198,-2.137 -4.34,-4.072 -6.409,-5.785 -3.733,-3.097 -6.145,-3.746 -7.513,-3.746 -0.957,0 -2.739,0 -3.137,4.71 -0.421,4.917 0.308,11.325 2.168,19.048 1.898,7.921 4.654,16.719 8.188,26.146 3.559,9.494 7.173,18.656 10.734,27.229 3.596,8.643 6.831,16.178 9.613,22.391 2.85,6.351 4.555,10.297 5.208,12.055 2.249,5.129 1.432,10.187 -2.355,14.63 -3.485,4.08 -8.216,6.937 -14.071,8.494 -5.716,1.514 -11.76,1.599 -17.925,0.249 -6.6,-1.451 -11.881,-5.359 -15.685,-11.602 -0.762,-1.236 -1.555,-2.599 -2.396,-4.113 -0.299,-0.541 -1.107,-0.42 -1.236,0.185 -0.724,3.409 -1.892,6.632 -3.489,9.627 -2.394,4.463 -5.938,8.126 -10.532,10.888 -4.667,2.803 -10.591,4.224 -17.605,4.224 -16.541,0 -33.316,-7.633 -49.858,-22.689 -16.24,-14.785 -29.701,-38.371 -40.02,-70.122 -4.842,-15.31 -7.682,-29.461 -8.444,-42.063 -0.767,-12.754 0.263,-23.761 3.055,-32.709 2.877,-9.227 7.471,-16.512 13.663,-21.647 6.382,-5.308 14.053,-8 22.795,-8 6.469,0 12.64,1.116 18.344,3.32 5.528,2.136 10.653,4.881 15.233,8.157 3.524,2.519 6.805,5.37 9.785,8.504 2.125,2.234 5.868,1.331 6.744,-1.623 0.979,-3.312 2.345,-6.258 4.092,-8.822 4.321,-6.326 11.16,-9.536 20.324,-9.536 10.153,0 20.412,3.808 30.491,11.317 4.698,3.496 9.288,7.309 13.735,11.41 1,0.921 2.575,-0.065 2.183,-1.367 -2.597,-8.636 -4.928,-16.637 -7.027,-24.144 -3.54,-12.62 -6.419,-23.489 -8.559,-32.308 -2.865,-11.829 -3.234,-15.045 -3.234,-16.528 0,-7.252 2.252,-13.434 6.699,-18.379 4.295,-4.755 9.272,-8.167 14.808,-10.141 3.643,-1.293 7.199,-1.949 10.562,-1.949 1.862,0 3.698,0.202 5.462,0.599 3.967,0.899 9.003,3.544 10.47,11.047 l 0.024,0.145 c 0.584,3.951 1.696,9.304 3.309,15.912 1.673,6.857 3.707,14.663 6.047,23.202 2.308,8.492 4.949,17.952 8.065,28.921 1.439,5.069 2.984,10.38 4.626,15.899 0.336,1.122 1.851,1.301 2.437,0.287 0.73,-1.262 1.543,-2.494 2.439,-3.692 5.051,-6.77 13.11,-10.21 23.955,-10.231 2.178,-0.097 4.365,-0.147 6.502,-0.147 h 0.003 c 15.947,0 30.925,2.737 44.514,8.134 12.985,5.15 24.881,11.445 35.478,18.731 1.039,0.716 2.4,-0.279 2.034,-1.488 -3.042,-10.022 -5.787,-19.402 -8.199,-28.016 -3.559,-12.708 -6.44,-23.577 -8.563,-32.307 -2.861,-11.85 -3.23,-15.058 -3.23,-16.527 0,-7.25 2.252,-13.431 6.7,-18.379 4.294,-4.758 9.274,-8.17 14.809,-10.141 3.644,-1.292 7.193,-1.949 10.558,-1.949 1.86,0 3.7,0.202 5.469,0.599 3.967,0.899 9,3.544 10.468,11.047 l 0.026,0.147 c 0.581,3.964 1.696,9.317 3.309,15.912 1.67,6.853 3.7,14.657 6.04,23.2 2.323,8.529 4.963,17.988 8.07,28.921 1.441,5.079 2.986,10.391 4.624,15.902 0.334,1.123 1.85,1.302 2.437,0.289 0.73,-1.264 1.545,-2.497 2.443,-3.696 5.045,-6.769 13.105,-10.211 23.954,-10.232 2.177,-0.097 4.362,-0.147 6.501,-0.147 h 0.002 c 15.943,0 30.922,2.737 44.515,8.134 15.213,6.032 28.962,13.627 40.867,22.576 2.025,1.523 3.997,3.063 5.917,4.619 0.881,0.712 2.195,0.072 2.174,-1.06 -0.007,-0.51 -0.011,-1.015 -0.011,-1.516 0,-9.519 2,-17.281 5.949,-23.07 4.321,-6.326 11.162,-9.536 20.324,-9.536 10.136,0 20.463,3.801 30.69,11.299 9.724,7.121 18.905,15.542 27.29,25.028 8.271,9.351 15.539,18.67 21.607,27.697 6.133,9.138 10.263,15.386 12.62,19.104 1.884,2.966 1.937,6.263 0.153,9.041" /></g><g
           transform="translate(864.5166,312.4854)"
           id="g32"><path
             id="path34"
             style="fill:red;fill-opacity:1;fill-rule:nonzero;stroke:none"
             d="m 0,0 c -44.734,-39.163 -84.411,-41.62 -132.06,-6.541 -21.91,16.11 -41.534,35.308 -63.501,51.332 -16.997,12.397 -34.963,24.709 -54.361,32.365 -33.563,13.283 -67.613,8.769 -98.265,-9.855 -20.824,-12.655 -39.792,-28.423 -59.101,-43.448 -2.715,-2.085 -4.742,-3.229 -6.8,-3.143 -2.057,-0.086 -4.084,1.058 -6.798,3.143 -19.31,15.025 -38.279,30.793 -59.102,43.448 -30.622,18.624 -64.701,23.138 -98.265,9.855 C -597.65,69.5 -615.617,57.188 -632.614,44.791 -654.582,28.767 -674.206,9.569 -696.115,-6.541 -743.764,-41.62 -783.44,-39.163 -828.174,0 c -3.685,3.229 -7.37,6.456 -11.055,9.655 6.656,-36.849 21.024,-69.9 42.22,-99.894 27.051,-38.278 62.53,-65.7 107.064,-80.755 104.092,-35.192 235.581,13.855 275.857,106.436 40.277,-92.581 171.766,-141.628 275.859,-106.436 44.534,15.055 80.011,42.477 107.064,80.755 21.194,29.994 35.563,63.045 42.22,99.894 C 7.369,6.456 3.685,3.229 0,0" /></g></g></g></g></svg>